<?xml version="1.0" encoding="utf-8"?>
<!-- Generator: Adobe Illustrator 19.1.0, SVG Export Plug-In . SVG Version: 6.00 Build 0)  -->
<!DOCTYPE svg PUBLIC "-//W3C//DTD SVG 1.1//EN" "http://www.w3.org/Graphics/SVG/1.1/DTD/svg11.dtd">
<svg version="1.1" id="Layer_9" xmlns="http://www.w3.org/2000/svg" xmlns:xlink="http://www.w3.org/1999/xlink" x="0px" y="0px"
	 viewBox="0 0 100 100" style="enable-background:new 0 0 100 100;" xml:space="preserve">
<style type="text/css">
	.st0{fill:#1B66FF;fill-opacity:0.3;stroke:#27272B;stroke-width:1.2987;stroke-linejoin:round;stroke-miterlimit:10;}
	.st1{fill:#1B66FF;}
	.st2{fill:none;stroke:#27272B;stroke-width:1.2987;stroke-linejoin:round;stroke-miterlimit:10;}
	.st3{fill:#27272B;}
	.st4{fill:#FFFFFF;stroke:#27272B;stroke-width:1.2987;stroke-miterlimit:10;}
	
		.st5{fill:#1B66FF;fill-opacity:0.3;stroke:#27272B;stroke-width:1.2987;stroke-linecap:round;stroke-linejoin:round;stroke-miterlimit:10;}
	.st6{fill:#1B66FF;fill-opacity:0.2;}
	.st7{clip-path:url(#SVGID_2_);fill:none;stroke:#27272B;stroke-linejoin:round;stroke-miterlimit:10;}
	.st8{clip-path:url(#SVGID_2_);fill:none;stroke:#27272B;stroke-linecap:round;stroke-linejoin:round;stroke-miterlimit:10;}
	.st9{clip-path:url(#SVGID_2_);fill:#1B66FF;fill-opacity:0.2;stroke:#27272B;stroke-linejoin:round;stroke-miterlimit:10;}
	.st10{fill:none;stroke:#27272B;stroke-linejoin:round;stroke-miterlimit:10;}
	.st11{clip-path:url(#SVGID_4_);fill:none;stroke:#27272B;stroke-linejoin:round;stroke-miterlimit:10;}
	.st12{clip-path:url(#SVGID_4_);fill:#1B66FF;}
	.st13{fill:none;}
	.st14{fill:#1B66FF;fill-opacity:0.3;}
	.st15{fill:none;stroke:#27272B;stroke-width:1.5;stroke-linecap:round;stroke-linejoin:round;stroke-miterlimit:10;}
	.st16{fill:none;stroke:#27272B;stroke-miterlimit:10;}
	.st17{fill:#27272B;fill-opacity:0.5;}
	.st18{fill:#1B66FF;fill-opacity:0.3;stroke:#1B66FF;stroke-linejoin:round;stroke-miterlimit:10;}
	.st19{opacity:0.2;clip-path:url(#SVGID_6_);fill:#1B66FF;}
	.st20{clip-path:url(#SVGID_6_);fill:#FFFFFF;}
	.st21{opacity:0.2;fill:#1B66FF;}
	.st22{fill:none;stroke:#FFFFFF;stroke-linecap:round;stroke-linejoin:round;stroke-miterlimit:10;}
	.st23{opacity:0.3;fill:#1B66FF;}
	.st24{fill:none;stroke:#27272B;stroke-linecap:round;stroke-linejoin:round;stroke-miterlimit:10;}
	.st25{fill:#FFFFFF;}
	.st26{fill:#1B66FF;fill-opacity:0.4;}
	.st27{fill:#FFFFFF;stroke:#27272B;stroke-width:1.5;stroke-linecap:round;stroke-linejoin:round;stroke-miterlimit:10;}
	.st28{fill:#1B66FF;stroke:#27272B;stroke-linejoin:round;stroke-miterlimit:10;}
	.st29{opacity:0.2;fill:#27272B;}
	.st30{fill:#27272B;fill-opacity:0.2;}
	.st31{fill:none;stroke:#1B66FF;stroke-width:2;stroke-linecap:round;stroke-miterlimit:10;stroke-opacity:0.3;}
	.st32{fill:none;stroke:#27272B;stroke-width:1.5;stroke-miterlimit:10;}
	.st33{fill:none;stroke:#27272B;stroke-width:1.0658;stroke-linecap:round;stroke-linejoin:round;stroke-miterlimit:10;}
	.st34{fill:#FFFFFF;stroke:#27272B;stroke-width:1.0658;stroke-linecap:round;stroke-linejoin:round;stroke-miterlimit:10;}
	
		.st35{fill:#27272B;fill-opacity:0.2;stroke:#27272B;stroke-width:1.3401;stroke-linecap:round;stroke-linejoin:round;stroke-miterlimit:10;}
	
		.st36{fill:#1B66FF;fill-opacity:0.3;stroke:#27272B;stroke-width:1.3401;stroke-linecap:round;stroke-linejoin:round;stroke-miterlimit:10;}
	.st37{fill:#FFFFFF;stroke:#27272B;stroke-linecap:round;stroke-linejoin:round;stroke-miterlimit:10;}
	.st38{fill:#FFFFFF;stroke:#27272B;stroke-width:0.9474;stroke-linecap:round;stroke-linejoin:round;stroke-miterlimit:10;}
	.st39{fill:#D4D4D5;stroke:#27272B;stroke-width:1.5;stroke-linecap:round;stroke-linejoin:round;stroke-miterlimit:10;}
	
		.st40{clip-path:url(#SVGID_8_);fill:#1B66FF;fill-opacity:0.3;stroke:#1B66FF;stroke-width:0.6228;stroke-linejoin:round;stroke-miterlimit:10;}
	.st41{clip-path:url(#SVGID_8_);fill:none;stroke:#1B66FF;stroke-width:0.6228;stroke-linejoin:round;stroke-miterlimit:10;}
	.st42{fill:#1B66FF;fill-opacity:0.3;stroke:#1B66FF;stroke-width:0.412;stroke-linejoin:round;stroke-miterlimit:10;}
	.st43{fill:none;stroke:#1B66FF;stroke-width:0.412;stroke-linejoin:round;stroke-miterlimit:10;}
	.st44{fill:#FFFFFF;fill-opacity:0.3;stroke:#27272B;stroke-width:1.2987;stroke-linejoin:round;stroke-miterlimit:10;}
	.st45{fill:#FFFFFF;stroke:#27272B;stroke-width:0.8344;stroke-linejoin:round;stroke-miterlimit:10;}
	.st46{fill:#FFFFFF;stroke:#27272B;stroke-width:1.2967;stroke-linejoin:round;stroke-miterlimit:10;}
	.st47{fill:#1B66FF;fill-opacity:0.3;stroke:#27272B;stroke-width:1.2967;stroke-linejoin:round;stroke-miterlimit:10;}
	.st48{fill:none;stroke:#27272B;stroke-width:1.2967;stroke-linejoin:round;stroke-miterlimit:10;}
	.st49{fill:#1B66FF;stroke:#27272B;stroke-width:0.8344;stroke-linejoin:round;stroke-miterlimit:10;}
</style>
<polygon class="st0" points="207.4,79.5 190.1,83.8 171.8,55.3 189.2,51 "/>
<polygon class="st1" points="171.4,59.2 167.2,60.2 165.5,57.4 169.7,56.3 "/>
<polygon class="st1" points="174.4,64.1 170.2,65.2 168.5,62.3 172.7,61.3 "/>
<polygon class="st1" points="177.4,69.1 173.2,70.1 171.4,67.2 175.6,66.2 "/>
<g>
	<g>
		<g>
			<path class="st2" d="M74.6,69.5v-40c0-0.7-0.6-1.3-1.3-1.3H20.8c-0.7,0-1.3,0.6-1.3,1.3v40"/>
			<rect x="22.5" y="30.7" class="st0" width="49.5" height="34.9"/>
			<path class="st2" d="M67.2,71.6H26.9c-4.5,0-8.8-0.1-12.4-2.8h0h65h0C76,71.5,71.6,71.6,67.2,71.6z"/>
			<g>
				<g>
					<g>
						<path class="st3" d="M52,54.7L37.4,39.2l15.5,14.6c0.2,0.2,0.3,0.6,0,0.9C52.7,54.9,52.2,54.9,52,54.7L52,54.7z"/>
					</g>
				</g>
				<g>
					<g>
						<path class="st3" d="M49.8,55.8l-11-11.9l11.9,11c0.2,0.2,0.3,0.6,0,0.9C50.5,56,50.1,56,49.8,55.8L49.8,55.8z"/>
					</g>
				</g>
				<g>
					<g>
						<path class="st3" d="M47.6,55.8l-7.3-7.9l7.9,7.3c0.2,0.2,0.2,0.5,0,0.6C48.1,55.9,47.8,56,47.6,55.8L47.6,55.8z"/>
					</g>
				</g>
				<g>
					<g>
						<path class="st3" d="M53.7,50.3l-7.6-8.2l8.2,7.6c0.2,0.2,0.2,0.5,0,0.6C54.2,50.5,53.9,50.5,53.7,50.3
							C53.7,50.3,53.7,50.3,53.7,50.3z"/>
					</g>
				</g>
				<g>
					<g>
						<path class="st3" d="M53,52.6l-11-11.9l11.9,11c0.2,0.2,0.3,0.6,0,0.9C53.7,52.8,53.4,52.9,53,52.6L53,52.6z"/>
					</g>
				</g>
				<g>
					<g>
						<path class="st3" d="M45.3,55.1l-3.5-3.8l3.8,3.5c0.1,0.1,0.1,0.2,0,0.3S45.4,55.2,45.3,55.1C45.4,55.1,45.3,55.1,45.3,55.1z"
							/>
					</g>
				</g>
				<g>
					<g>
						<path class="st3" d="M53.4,47.5L50,43.8l3.8,3.5c0.1,0.1,0.1,0.2,0,0.3C53.7,47.7,53.5,47.7,53.4,47.5
							C53.4,47.6,53.4,47.6,53.4,47.5z"/>
					</g>
				</g>
			</g>
			<g>
				<path class="st4" d="M82.9,74.4H68.5c-0.7,0-1.3-0.6-1.3-1.3V43.8c0-0.7,0.6-1.3,1.3-1.3h14.4c0.7,0,1.3,0.6,1.3,1.3v29.4
					C84.2,73.8,83.6,74.4,82.9,74.4z"/>
				<circle class="st3" cx="75.5" cy="71.7" r="1.3"/>
				<rect x="69.7" y="47" class="st0" width="11.9" height="21.9"/>
				<g>
					<g>
						<g>
							<path class="st3" d="M77.7,60l-5.9-6.3l6.3,5.9c0.1,0.1,0.1,0.2,0,0.4C78,60,77.8,60,77.7,60L77.7,60z"/>
						</g>
					</g>
					<g>
						<g>
							<path class="st3" d="M76.8,60.4l-4.4-4.8l4.8,4.4c0.1,0.1,0.1,0.2,0,0.4C77.1,60.5,77,60.5,76.8,60.4L76.8,60.4z"/>
						</g>
					</g>
					<g>
						<g>
							<path class="st3" d="M75.9,60.4L73,57.2l3.2,2.9c0.1,0.1,0.1,0.2,0,0.2S76,60.5,75.9,60.4L75.9,60.4z"/>
						</g>
					</g>
					<g>
						<g>
							<path class="st3" d="M78.4,58.2l-3.1-3.3l3.3,3.1c0.1,0.1,0.1,0.2,0,0.2C78.6,58.2,78.5,58.2,78.4,58.2
								C78.4,58.2,78.4,58.2,78.4,58.2z"/>
						</g>
					</g>
					<g>
						<g>
							<path class="st3" d="M78.1,59.1l-4.4-4.8l4.8,4.4c0.1,0.1,0.1,0.2,0,0.4C78.4,59.2,78.3,59.2,78.1,59.1L78.1,59.1z"/>
						</g>
					</g>
					<g>
						<g>
							<path class="st3" d="M75,60.1l-1.4-1.5l1.5,1.4c0,0,0,0.1,0,0.1S75.1,60.2,75,60.1C75,60.1,75,60.1,75,60.1z"/>
						</g>
					</g>
					<g>
						<g>
							<path class="st3" d="M78.3,57.1l-1.4-1.5l1.5,1.4c0,0,0,0.1,0,0.1C78.4,57.1,78.3,57.1,78.3,57.1
								C78.3,57.1,78.3,57.1,78.3,57.1z"/>
						</g>
					</g>
				</g>
				<line class="st5" x1="73.8" y1="44" x2="77" y2="44"/>
			</g>
		</g>
	</g>
	<path class="st3" d="M50,100C22.4,100,0,77.6,0,50S22.4,0,50,0s50,22.4,50,50S77.6,100,50,100z M50,2.6C23.9,2.6,2.6,23.9,2.6,50
		S23.9,97.4,50,97.4S97.4,76.2,97.4,50S76.1,2.6,50,2.6z"/>
</g>
<g>
	<g>
		<path class="st6" d="M343.5,65.3c-6.1,6.1-12.5,10.9-18.2,14c4-4.1,7-8.5,8.6-12.5c4-2.3,8.4-5.7,12.6-9.9
			c10.5-10.5,15.9-22.2,12-26.1c-3.9-3.9-15.5,1.5-26.1,12c-4.2,4.2-7.6,8.7-9.9,12.7c-3.9,1.6-8.2,4.4-12.3,8.2
			c3.1-5.7,7.8-11.9,13.8-17.9c14.2-14.2,30.1-21.4,35.5-16C364.9,35.2,357.8,51.1,343.5,65.3z"/>
		<g>
			<defs>
				<polyline id="SVGID_1_" points="307,95 308.1,90.5 326.2,72.5 330.9,64 344.2,50.7 357.4,31.8 338.5,45 325.2,58.3 316.7,63 
					298.7,81.1 291.6,82.6 				"/>
			</defs>
			<use xlink:href="#SVGID_1_"  style="overflow:visible;fill:#FFFFFF;"/>
			<clipPath id="SVGID_2_">
				<use xlink:href="#SVGID_1_"  style="overflow:visible;"/>
			</clipPath>
			<path class="st7" d="M334.6,64.2c-1.1,1.1-4-0.2-6.6-2.8s-3.8-5.6-2.8-6.6"/>
			<path class="st8" d="M351.6,47.1c-1.1,1.1-4-0.2-6.6-2.8"/>
			<path class="st8" d="M351.2,49.6c-1.5,1.5-5.5-0.3-9.1-3.8"/>
			<path class="st7" d="M331,72.8c-1.3,1.9-4.3,1.2-10.1-4.3c-4.1-3.8-5.9-8.5-4.3-10.1"/>
			<path class="st7" d="M313,90.8c-1.6,1.6-6.2-0.3-10.1-4.3c-4-4-5.9-8.5-4.3-10.1"/>
			<path class="st9" d="M334.6,45.3c-1.1,1.1,0.1,4,2.7,6.6s5.5,3.8,6.5,2.7l2.8-2.8c-1.1,1.1-3.9-0.1-6.5-2.7s-3.8-5.5-2.7-6.5
				L334.6,45.3z"/>
			
				<use xlink:href="#SVGID_1_"  style="overflow:visible;fill:none;stroke:#27272B;stroke-width:1.5;stroke-linecap:round;stroke-linejoin:round;stroke-miterlimit:10;"/>
		</g>
		
			<rect x="315.4" y="70.6" transform="matrix(0.7071 0.7071 -0.7071 0.7071 146.4815 -201.7549)" class="st3" width="2.7" height="10.7"/>
		
			<rect x="308.8" y="81.2" transform="matrix(0.7071 0.7071 -0.7071 0.7071 149.2292 -195.1215)" class="st1" width="2.7" height="2.7"/>
		
			<rect x="333.6" y="52.3" transform="matrix(0.7071 0.7071 -0.7071 0.7071 136.5226 -220.8922)" class="st1" width="2.7" height="4"/>
	</g>
	<g>
		<path class="st3" d="M327.2,2.5c26.2,0,47.5,21.3,47.5,47.5s-21.3,47.5-47.5,47.5S279.7,76.2,279.7,50S301,2.5,327.2,2.5 M327.2,0
			c-27.6,0-50,22.4-50,50s22.4,50,50,50c27.6,0,50-22.4,50-50S354.9,0,327.2,0L327.2,0z"/>
	</g>
	<g>
		<g>
			<path class="st10" d="M300.7,50.6l-2.9-2.9c1.3-1.3,3.8-1.7,3.8-1.7l7.1,7.1c0,0-0.5,2.5-1.7,3.8l-2.9-2.9"/>
			<path class="st10" d="M304.2,48.4c0,0-3,1.2-4,2.8l3.2,3.2c1.7-1,2.8-4,2.8-4"/>
		</g>
		<g>
			<path class="st6" d="M306.6,57.2l-2.9-2.9c-0.2,0.2-0.4,0.4-0.6,0.5l-3.2-3.2c0.1-0.2,0.3-0.4,0.5-0.6l-2.8-2.8
				c1.3-1.3,3.8-1.7,3.8-1.7l7.1,7.1C308.3,53.4,307.9,55.9,306.6,57.2z"/>
		</g>
		<g>
			<defs>
				<path id="SVGID_3_" d="M305.2,43.8l-4.5,1.1c0,0,2.1,3.3,3.9,5s5.2,4.1,5.2,4.1l1.1-4.5l10.8-10.8l2.8-5.1l8-8l7.9-11.3
					l-11.3,7.9l-8,8L316,33L305.2,43.8z"/>
			</defs>
			<use xlink:href="#SVGID_3_"  style="overflow:visible;fill:#FFFFFF;"/>
			<clipPath id="SVGID_4_">
				<use xlink:href="#SVGID_3_"  style="overflow:visible;"/>
			</clipPath>
			<path class="st11" d="M326.6,33.8c-0.6,0.6-2.4-0.1-4-1.7c-1.6-1.6-2.3-3.3-1.7-4"/>
			<path class="st11" d="M324.4,39c-1,1-3.7-0.2-6.1-2.6s-3.5-5.1-2.6-6.1"/>
			<path class="st11" d="M313.7,49.7c-1,1-3.7-0.2-6.1-2.6s-3.5-5.1-2.6-6.1"/>
			<path class="st12" d="M326.6,22.5c-0.6,0.6,0.1,2.4,1.6,3.9c1.6,1.6,3.3,2.2,3.9,1.6l1.7-1.7c-0.6,0.6-2.4-0.1-3.9-1.6
				c-1.6-1.6-2.2-3.3-1.6-3.9L326.6,22.5z"/>
			
				<use xlink:href="#SVGID_3_"  style="overflow:visible;fill:none;stroke:#27272B;stroke-width:1.5;stroke-linecap:round;stroke-linejoin:round;stroke-miterlimit:10;"/>
		</g>
		
			<rect x="315.3" y="37.5" transform="matrix(0.7071 0.7071 -0.7071 0.7071 121.376 -211.5562)" class="st3" width="1.6" height="6.4"/>
	</g>
	<path class="st6" d="M342.8,11.9c0,0-18.7-2.5-33.1,14.7c0,0,6.2-5.5,8.5-3C318.2,23.5,327.4,13.2,342.8,11.9z"/>
</g>
<g>
	<path class="st3" d="M191.6,2.5c26.2,0,47.5,21.3,47.5,47.5s-21.3,47.5-47.5,47.5S144.1,76.2,144.1,50S165.4,2.5,191.6,2.5
		 M191.6,0c-27.6,0-50,22.4-50,50s22.4,50,50,50c27.6,0,50-22.4,50-50S219.2,0,191.6,0L191.6,0z"/>
</g>
<g>
	<path class="st3" d="M469.2,2.5c26.2,0,47.5,21.3,47.5,47.5s-21.3,47.5-47.5,47.5S421.7,76.2,421.7,50S443,2.5,469.2,2.5 M469.2,0
		c-27.6,0-50,22.4-50,50s22.4,50,50,50c27.6,0,50-22.4,50-50S496.9,0,469.2,0L469.2,0z"/>
</g>
<g>
	<g>
		<path class="st13" d="M-112.5,229.6l20.2,14.4l0,5.2l0.5,0.3l0,7.8h2.8l0.2-6l1.9,1.1l-0.1,7.2h5.7l-0.1-7.2l1.9-1.1l0.2,6h2.8
			l0-7.8l0.5-0.3l0-5.2l20.2-14.9c0,0-2.5,16.2,4,30.3c9.3-8.7,15.1-21,15.1-34.6c0-26.1-21.3-47.4-47.4-47.4s-47.4,21.3-47.4,47.4
			c0,13.6,5.8,25.9,15,34.6C-110,245.4-112.5,229.6-112.5,229.6z"/>
		<path class="st14" d="M-51.7,259.3c-6.5-14.1-4-30.3-4-30.3l-20.2,14.9l0,5.2l-0.5,0.3l0,7.8h-2.8l-0.2-6l-1.9,1.1l0.1,7.2h-5.7
			l0.1-7.2l-1.9-1.1l-0.2,6h-2.8l0-7.8l-0.5-0.3l0-5.2l-20.2-14.4c0,0,2.5,15.9-3.9,29.7c8.5,7.9,19.9,12.8,32.4,12.8
			C-71.5,272.1-60.2,267.2-51.7,259.3z"/>
		<path class="st3" d="M-50.4,261.7c10.1-9.2,16.4-22.4,16.4-37c0-27.6-22.4-50-50-50s-50,22.4-50,50c0,14.7,6.3,27.9,16.4,37
			c8.9,8.1,20.7,13,33.6,13C-71.1,274.7-59.3,269.8-50.4,261.7z M-131.4,224.7c0-26.1,21.3-47.4,47.4-47.4s47.4,21.3,47.4,47.4
			c0,13.6-5.8,26-15.1,34.6c-8.5,7.9-19.8,12.8-32.3,12.8c-12.5,0-23.9-4.9-32.4-12.8C-125.6,250.6-131.4,238.3-131.4,224.7z"/>
	</g>
	<path class="st15" d="M-92.5,243.7l-19.1-13.5v-1h16l4.4-15V214c1.2-12,3.3-25.8,7.1-25.8c3.8,0,6,14,7.2,26l4.4,15h16v1
		l-19.3,13.5h0v7l-7.3,4.4c-0.6,0.4-1.3,0.4-1.9,0l-7.5-4.4V243.7z"/>
	<path class="st16" d="M-88,253c0-18,1.7-32.6,3.9-32.6c2.1,0,3.9,14.6,3.9,32.6"/>
	<path class="st1" d="M-85.3,254.5c0-5.4,0.5-9.8,1.2-9.8c0.6,0,1.2,4.4,1.2,9.8"/>
	<path class="st16" d="M-75.9,231.1v19.2l-7.3,4.4c-0.6,0.4-1.3,0.4-1.9,0l-7.4-4.4v-19.2c0,0,1.6-43,8.3-43
		C-77.5,188.2-75.9,231.1-75.9,231.1z"/>
	<g>
		<polygon class="st16" points="-76.4,258.2 -79.3,258.2 -79.3,252.2 -76.4,250.4 		"/>
		<polyline class="st16" points="-87.1,253.3 -87.1,260.5 -81.3,260.5 -81.3,253.3 		"/>
		<polygon class="st16" points="-92,258.2 -89.1,258.2 -89.1,252.2 -92,250.4 		"/>
	</g>
	<rect x="-66.5" y="226.2" class="st16" width="2.5" height="2.4"/>
	<line class="st16" x1="-64.5" y1="226" x2="-64.5" y2="222"/>
	<rect x="-104.3" y="226.2" class="st16" width="2.5" height="2.4"/>
	<line class="st16" x1="-102.5" y1="226" x2="-102.5" y2="222"/>
	<rect x="-79.2" y="255.8" class="st17" width="2.8" height="2.2"/>
	<rect x="-91.9" y="255.8" class="st17" width="2.8" height="2.2"/>
	<rect x="-87.2" y="258.3" class="st17" width="6.1" height="2.2"/>
	<ellipse class="st18" cx="-84.3" cy="200.6" rx="1.2" ry="5.4"/>
</g>
<g>
	<defs>
		<circle id="SVGID_5_" cx="-84" cy="50" r="50"/>
	</defs>
	<clipPath id="SVGID_6_">
		<use xlink:href="#SVGID_5_"  style="overflow:visible;"/>
	</clipPath>
	<path class="st19" d="M-147.3,97.8c53.7,0,50.5-36,50.5-36l11.9,11.5l12.1-11.5c0,0-3.2,36,50.5,36
		C-22.2,97.8-147.6,97.8-147.3,97.8z"/>
	<path class="st20" d="M-85.3,100"/>
	<path class="st20" d="M-101.2,100c11.5,0,13-29.8,13-29.8l3.3,3l3.3-3c0,0,1.5,29.8,13,29.8H-101.2z"/>
</g>
<polygon class="st21" points="-74,33.6 -74,62.1 -85,73.4 -96,62.1 -96,33.6 -85,22.3 "/>
<polyline class="st22" points="-96.2,62.1 -84.9,50.8 -73.6,62.1 "/>
<line class="st22" x1="-84.9" y1="50.8" x2="-84.9" y2="22.3"/>
<polygon class="st23" points="-74,34 -74,63 -85,73.5 -85,45 "/>
<polyline class="st15" points="-96.2,33.6 -84.9,22.3 -73.6,33.6 "/>
<line class="st15" x1="-73.6" y1="62.1" x2="-73.6" y2="33.6"/>
<line class="st24" x1="-84.9" y1="73.2" x2="-84.9" y2="44.7"/>
<line class="st15" x1="-96.2" y1="33.6" x2="-96.2" y2="62.1"/>
<polyline class="st15" points="-73.6,62.1 -84.9,73.4 -96.2,62.1 "/>
<g>
	<path class="st3" d="M-84,2.5c26.2,0,47.5,21.3,47.5,47.5S-57.8,97.5-84,97.5s-47.5-21.3-47.5-47.5S-110.2,2.5-84,2.5 M-84,0
		c-27.6,0-50,22.4-50,50s22.4,50,50,50s50-22.4,50-50S-56.4,0-84,0L-84,0z"/>
</g>
<g>
	<path class="st25" d="M-71.3,67.4c-0.3-3-2.7-5.4-5.8-5.8c3-0.3,5.4-2.7,5.8-5.8c0.3,3,2.7,5.4,5.8,5.8C-68.6,62-71,64.4-71.3,67.4
		z"/>
	<path class="st3" d="M-71.3,59c0.6,1.1,1.6,2,2.7,2.7c-1.1,0.6-2,1.6-2.7,2.7c-0.6-1.1-1.6-2-2.7-2.7C-72.9,61-71.9,60.1-71.3,59
		 M-71.2,54.3h-0.1c-0.5,0-0.9,0.4-0.9,0.9c0,3-2.5,5.5-5.5,5.5h0c-0.5,0-0.9,0.4-0.9,0.9v0.1c0,0.5,0.4,0.9,0.9,0.9h0
		c3,0,5.5,2.5,5.5,5.5c0,0.5,0.4,0.9,0.9,0.9h0.1c0.5,0,0.9-0.4,0.9-0.9c0-3,2.5-5.5,5.5-5.5c0.5,0,0.9-0.4,0.9-0.9v-0.1
		c0-0.5-0.4-0.9-0.9-0.9c-3,0-5.5-2.5-5.5-5.5C-70.3,54.7-70.7,54.3-71.2,54.3L-71.2,54.3z"/>
</g>
<g>
	<path class="st25" d="M-98.4,32.6c1.9-2.4,1.9-5.8,0-8.1c1.2,0.9,2.6,1.4,4.1,1.4s2.9-0.5,4.1-1.4c-0.9,1.2-1.4,2.6-1.4,4.1
		s0.5,2.9,1.4,4.1c-1.2-0.9-2.6-1.4-4.1-1.4C-95.8,31.2-97.2,31.7-98.4,32.6z"/>
	<g>
		<path class="st3" d="M-92.4,26.6c-0.3,1.2-0.3,2.5,0,3.8c-0.6-0.2-1.2-0.2-1.9-0.2s-1.3,0.1-1.9,0.2c0.3-1.2,0.3-2.5,0-3.8
			c0.6,0.2,1.2,0.2,1.9,0.2S-93,26.8-92.4,26.6 M-89.8,23c-0.2,0-0.5,0.1-0.6,0.3c-1.1,1.1-2.5,1.6-3.9,1.6c-1.4,0-2.8-0.5-3.9-1.6
			c-0.2-0.2-0.4-0.3-0.6-0.3c-0.2,0-0.5,0.1-0.6,0.3l-0.1,0.1c-0.3,0.3-0.3,0.9,0,1.3c2.2,2.2,2.2,5.6,0,7.8c-0.3,0.3-0.3,0.9,0,1.3
			l0.1,0.1c0.2,0.2,0.4,0.3,0.6,0.3c0.2,0,0.5-0.1,0.6-0.3h0c1.1-1.1,2.5-1.6,3.9-1.6c1.4,0,2.8,0.5,3.9,1.6
			c0.2,0.2,0.4,0.3,0.6,0.3c0.2,0,0.5-0.1,0.6-0.3l0.1-0.1c0.3-0.3,0.3-0.9,0-1.3v0c-2.2-2.2-2.2-5.6,0-7.8c0.3-0.3,0.3-0.9,0-1.3
			l-0.1-0.1C-89.3,23.1-89.5,23-89.8,23L-89.8,23z"/>
	</g>
</g>
<polyline class="st24" points="-73.6,33.6 -84.9,44.9 -96.2,33.6 "/>
<rect x="736.3" y="-127" class="st13" width="264" height="470"/>
<rect x="-134" y="-41.7" class="st13" width="122.4" height="28"/>
<text transform="matrix(1 0 0 1 -134.0208 -33.6633)"><tspan x="0" y="0" class="st25" style="font-family:'ProximaNova-Regular'; font-size:12px;">UNIVERSAL </tspan><tspan x="0" y="14.4" class="st25" style="font-family:'ProximaNova-Regular'; font-size:12px;">JAVASCRIPT</tspan></text>
<rect x="-134" y="139.8" class="st13" width="68" height="28"/>
<text transform="matrix(1 0 0 1 -134.0208 147.8367)"><tspan x="0" y="0" class="st25" style="font-family:'ProximaNova-Regular'; font-size:12px;">HOT </tspan><tspan x="0" y="14.4" class="st25" style="font-family:'ProximaNova-Regular'; font-size:12px;">DEPLOYS</tspan></text>
<rect x="140.1" y="139.8" class="st13" width="68" height="28"/>
<text transform="matrix(1 0 0 1 140.0993 147.8367)"><tspan x="0" y="0" class="st25" style="font-family:'ProximaNova-Regular'; font-size:12px;">RADICALLY </tspan><tspan x="0" y="14.4" class="st25" style="font-family:'ProximaNova-Regular'; font-size:12px;">LESS CODE</tspan></text>
<rect x="281.1" y="125" class="st13" width="92.9" height="42.8"/>
<text transform="matrix(1 0 0 1 281.0993 133.0037)"><tspan x="0" y="0" class="st25" style="font-family:'ProximaNova-Regular'; font-size:12px;">FULLY </tspan><tspan x="0" y="14.4" class="st25" style="font-family:'ProximaNova-Regular'; font-size:12px;">INTEGRATED </tspan><tspan x="0" y="28.8" class="st25" style="font-family:'ProximaNova-Regular'; font-size:12px;">AND FLEXIBLE</tspan></text>
<rect x="-1" y="125.6" class="st13" width="101" height="49.1"/>
<text transform="matrix(1 0 0 1 -0.986 133.5843)"><tspan x="0" y="0" class="st25" style="font-family:'ProximaNova-Regular'; font-size:12px;">CONNECTED </tspan><tspan x="0" y="14.4" class="st25" style="font-family:'ProximaNova-Regular'; font-size:12px;">CLIENT </tspan><tspan x="0" y="28.8" class="st25" style="font-family:'ProximaNova-Regular'; font-size:12px;">OPERATIONS</tspan></text>
<rect y="-41.7" class="st13" width="61.2" height="28"/>
<text transform="matrix(1 0 0 1 0 -33.6633)"><tspan x="0" y="0" class="st25" style="font-family:'ProximaNova-Regular'; font-size:12px;">MOBILE </tspan><tspan x="0" y="14.4" class="st25" style="font-family:'ProximaNova-Regular'; font-size:12px;">AND WEB</tspan></text>
<rect x="142" y="-41.7" class="st13" width="89" height="28"/>
<text transform="matrix(1 0 0 1 141.9518 -33.6633)"><tspan x="0" y="0" class="st25" style="font-family:'ProximaNova-Regular'; font-size:12px;">REACTIVE </tspan><tspan x="0" y="14.4" class="st25" style="font-family:'ProximaNova-Regular'; font-size:12px;">RENDERING</tspan></text>
<rect x="277.3" y="-55.8" class="st13" width="100" height="41.7"/>
<text transform="matrix(1 0 0 1 277.2596 -47.8321)"><tspan x="0" y="0" class="st25" style="font-family:'ProximaNova-Regular'; font-size:12px;">COORDINATED </tspan><tspan x="0" y="14.4" class="st25" style="font-family:'ProximaNova-Regular'; font-size:12px;">VERSION </tspan><tspan x="0" y="28.8" class="st25" style="font-family:'ProximaNova-Regular'; font-size:12px;">UPDATES</tspan></text>
<rect x="418.3" y="-25.8" class="st13" width="100" height="16.7"/>
<text transform="matrix(1 0 0 1 418.2596 -17.8321)" class="st25" style="font-family:'ProximaNova-Regular'; font-size:12px;">OPTIMISTIC UI</text>
<g>
	<path class="st3" d="M50,177.2c26.2,0,47.5,21.3,47.5,47.5S76.2,272.2,50,272.2S2.5,250.9,2.5,224.7S23.8,177.2,50,177.2 M50,174.7
		c-27.6,0-50,22.4-50,50c0,27.6,22.4,50,50,50s50-22.4,50-50C100,197.1,77.6,174.7,50,174.7L50,174.7z"/>
</g>
<g>
	<polygon class="st26" points="52.9,259.1 45.8,252.1 51.1,246.7 58.2,253.8 	"/>
	<rect x="60.1" y="249.2" transform="matrix(0.7071 0.7071 -0.7071 0.7071 197.1986 29.8396)" class="st6" width="5" height="7.5"/>
	<polygon class="st6" points="23.8,219.5 16.8,212.5 22.1,207.1 29.2,214.2 	"/>
	<polygon class="st27" points="44.8,221.9 50.7,227.8 56.1,233.2 34.9,254.4 23.6,243.1 	"/>
	<line class="st10" x1="35.1" y1="230.8" x2="16.7" y2="212.4"/>
	
		<rect x="26.6" y="217.3" transform="matrix(-0.7071 -0.7071 0.7071 -0.7071 -109.2257 404.4096)" class="st24" width="5" height="15"/>
	<g>
		<g>
			<g>
				<path class="st21" d="M49.7,212.5l15.9,15.9c0,0-5,3.5-12.1-3.6C46.4,217.7,49.7,212.5,49.7,212.5z"/>
				<path class="st15" d="M49.7,212.5l15.9,15.9c0,0-5,3.5-12.1-3.6C46.4,217.7,49.7,212.5,49.7,212.5z"/>
			</g>
			<line class="st28" x1="50.6" y1="227.2" x2="53.5" y2="224.4"/>
		</g>
	</g>
	<line class="st24" x1="57.7" y1="220.2" x2="59.1" y2="218.7"/>
	
		<rect x="27.6" y="243.2" transform="matrix(-0.7071 -0.7071 0.7071 -0.7071 -120.3574 438.479)" class="st1" width="6" height="2"/>
	<rect x="31" y="238.9" transform="matrix(-0.7071 -0.7071 0.7071 -0.7071 -114.9432 432.2364)" class="st3" width="2" height="2"/>
	
		<rect x="33.9" y="236.1" transform="matrix(-0.7071 -0.7071 0.7071 -0.7071 -108.1148 429.408)" class="st3" width="2" height="2"/>
	<line class="st10" x1="40.7" y1="225.1" x2="52.1" y2="236.4"/>
	<circle class="st29" cx="51.8" cy="233.1" r="1"/>
	<circle class="st29" cx="49.7" cy="231" r="1"/>
	<line class="st24" x1="22.1" y1="228.4" x2="32.7" y2="217.8"/>
	
		<rect x="23.1" y="213.8" transform="matrix(-0.7071 -0.7071 0.7071 -0.7071 -112.7612 395.8741)" class="st24" width="5" height="15"/>
	<line class="st24" x1="18.5" y1="224.8" x2="29.1" y2="214.2"/>
	
		<rect x="19.6" y="210.3" transform="matrix(-0.7071 -0.7071 0.7071 -0.7071 -116.2968 387.3385)" class="st24" width="5" height="15"/>
	<line class="st24" x1="15" y1="221.3" x2="25.6" y2="210.7"/>
	
		<rect x="16" y="206.7" transform="matrix(-0.7071 -0.7071 0.7071 -0.7071 -119.8323 378.8029)" class="st24" width="5" height="15"/>
	<line class="st24" x1="11.5" y1="217.8" x2="22.1" y2="207.1"/>
	<line class="st10" x1="46.4" y1="242.1" x2="65.5" y2="261.2"/>
	<rect x="50.4" y="241" transform="matrix(0.7071 0.7071 -0.7071 0.7071 191.2258 35.4202)" class="st24" width="5" height="15"/>
	<line class="st24" x1="59.9" y1="245" x2="49.3" y2="255.6"/>
	<rect x="53.9" y="244.6" transform="matrix(0.7071 0.7071 -0.7071 0.7071 194.7613 33.9557)" class="st24" width="5" height="15"/>
	<line class="st24" x1="63.5" y1="248.5" x2="52.9" y2="259.1"/>
	<rect x="57.4" y="248.1" transform="matrix(0.7071 0.7071 -0.7071 0.7071 198.2968 32.4912)" class="st24" width="5" height="15"/>
	<line class="st24" x1="67" y1="252.1" x2="56.4" y2="262.7"/>
	<rect x="61" y="251.6" transform="matrix(0.7071 0.7071 -0.7071 0.7071 201.8324 31.0268)" class="st24" width="5" height="15"/>
	<line class="st24" x1="70.5" y1="255.6" x2="59.9" y2="266.2"/>
	<line class="st10" x1="32.3" y1="251.3" x2="49.2" y2="234.3"/>
	
		<rect x="58.2" y="258.2" transform="matrix(0.7071 0.7071 -0.7071 0.7071 202.9581 33.7444)" class="st30" width="5" height="7.3"/>
	
		<rect x="16.9" y="216.7" transform="matrix(0.7071 0.7071 -0.7071 0.7071 161.5573 50.8672)" class="st30" width="5" height="7.5"/>
	
		<rect x="23.9" y="223.9" transform="matrix(0.7071 0.7071 -0.7071 0.7071 168.6375 47.9604)" class="st30" width="5" height="7.3"/>
	
		<rect x="40.2" y="231.6" transform="matrix(-0.7071 -0.7071 0.7071 -0.7071 -100.4162 446.6684)" class="st30" width="4.1" height="25"/>
</g>
<g>
	<path class="st31" d="M87.3,217.1"/>
	<path class="st31" d="M60.8,190.6"/>
	<path class="st31" d="M60.8,200.5"/>
	<path class="st31" d="M77.4,217.1"/>
	<path class="st31" d="M60.8,200.5"/>
	<path class="st31" d="M60.8,209.3"/>
	<path class="st31" d="M68.6,217.1"/>
	<path class="st31" d="M77.4,217.1"/>
	<path class="st31" d="M60.8,209.3"/>
	<path class="st31" d="M68.6,217.1"/>
	<path class="st31" d="M60.8,190.6c6.8,0,13.6,2.6,18.7,7.8c5.2,5.2,7.8,12,7.8,18.7"/>
	<path class="st31" d="M60.8,209.3c2,0,4,0.8,5.6,2.3c1.5,1.5,2.3,3.5,2.3,5.6"/>
	<path class="st31" d="M77.4,217.1c0-4.3-1.6-8.5-4.9-11.7s-7.5-4.9-11.7-4.9"/>
</g>
<rect x="167" y="202.6" class="st23" width="49.3" height="7.8"/>
<path class="st32" d="M213.7,248h-44.5c-1.5,0-2.7-1.2-2.7-2.7v-40.3c0-1.5,1.2-2.7,2.7-2.7h44.5c1.5,0,2.7,1.2,2.7,2.7v40.3
	C216.3,246.8,215.2,248,213.7,248z"/>
<g>
	<path class="st3" d="M191.6,177.3c26.1,0,47.3,21.2,47.3,47.3S217.7,272,191.6,272s-47.3-21.2-47.3-47.3S165.5,177.3,191.6,177.3
		 M191.6,174.7c-27.6,0-50,22.4-50,50c0,27.6,22.4,50,50,50c27.6,0,50-22.4,50-50C241.6,197.1,219.2,174.7,191.6,174.7L191.6,174.7z
		"/>
</g>
<line class="st16" x1="167" y1="209.5" x2="217" y2="209.5"/>
<g>
	<path class="st1" d="M206.2,234.2h-5.3c-0.7,0-1.3-0.6-1.3-1.3c0-0.7,0.6-1.3,1.3-1.3h5.3c0.7,0,1.3,0.6,1.3,1.3
		C207.5,233.6,206.9,234.2,206.2,234.2z M195.5,234.2h-2.7c-0.7,0-1.3-0.6-1.3-1.3c0-0.7,0.6-1.3,1.3-1.3h2.7c0.7,0,1.3,0.6,1.3,1.3
		C196.8,233.6,196.2,234.2,195.5,234.2z M187.5,234.2h-5.3c-0.7,0-1.3-0.6-1.3-1.3c0-0.7,0.6-1.3,1.3-1.3h5.3c0.7,0,1.3,0.6,1.3,1.3
		C188.8,233.6,188.2,234.2,187.5,234.2z M176.8,234.2h-2.7c-0.7,0-1.3-0.6-1.3-1.3c0-0.7,0.6-1.3,1.3-1.3h2.7c0.7,0,1.3,0.6,1.3,1.3
		C178.2,233.6,177.6,234.2,176.8,234.2z"/>
</g>
<g>
	<path class="st1" d="M208.3,225.7h-2.7c-0.7,0-1.3-0.6-1.3-1.3s0.6-1.3,1.3-1.3h2.7c0.7,0,1.3,0.6,1.3,1.3S209,225.7,208.3,225.7z
		 M200.3,225.7h-2.7c-0.7,0-1.3-0.6-1.3-1.3s0.6-1.3,1.3-1.3h2.7c0.7,0,1.3,0.6,1.3,1.3S201,225.7,200.3,225.7z M192.3,225.7H187
		c-0.7,0-1.3-0.6-1.3-1.3s0.6-1.3,1.3-1.3h5.3c0.7,0,1.3,0.6,1.3,1.3S193,225.7,192.3,225.7z M181.6,225.7H179
		c-0.7,0-1.3-0.6-1.3-1.3s0.6-1.3,1.3-1.3h2.7c0.7,0,1.3,0.6,1.3,1.3S182.4,225.7,181.6,225.7z"/>
</g>
<g>
	<path class="st1" d="M187.6,217.2h-5.3c-0.7,0-1.3-0.6-1.3-1.3s0.6-1.3,1.3-1.3h5.3c0.7,0,1.3,0.6,1.3,1.3S188.4,217.2,187.6,217.2
		z M177,217.2h-2.7c-0.7,0-1.3-0.6-1.3-1.3s0.6-1.3,1.3-1.3h2.7c0.7,0,1.3,0.6,1.3,1.3S177.7,217.2,177,217.2z"/>
</g>
<circle class="st3" cx="170.7" cy="206.4" r="1.3"/>
<circle class="st3" cx="174.7" cy="206.4" r="1.3"/>
<circle class="st3" cx="178.7" cy="206.4" r="1.3"/>
<g>
	<g>
		<g>
			<path class="st3" d="M199.5,265.8c0,0.4-0.6,0.7-1,0.7s-0.7-0.3-0.7-0.7s0.2-0.7,0.7-0.7S199.5,265.4,199.5,265.8z"/>
		</g>
	</g>
	<g>
		<g>
			<path class="st3" d="M170.1,258.5c0,0.4-0.4,0.5-0.8,0.5c-0.4,0-0.8-0.1-0.8-0.5s0.4-0.7,0.8-0.7
				C169.7,257.9,170.1,258.1,170.1,258.5z"/>
		</g>
	</g>
	<g>
		<g>
			<path class="st3" d="M192.3,252.3c0,0.2-0.1,0.3-0.3,0.3c-0.2,0-0.3,0-0.3-0.3c0-0.2,0.1-0.3,0.3-0.3
				C192.3,252,192.3,252.1,192.3,252.3z"/>
		</g>
	</g>
	<g>
		<g>
			<path class="st3" d="M156.8,252.2c0,0.6-0.2,0.7-0.7,0.7c-0.6,0-0.9-0.2-0.9-0.7c0-0.6,0.4-1.1,0.9-1.1
				C156.6,251,156.8,251.7,156.8,252.2z"/>
		</g>
	</g>
	<g>
		<g>
			<path class="st3" d="M221.2,255.6c0,0.5-0.2,0.9-0.7,0.9s-1.1-0.4-1.1-0.9c0-0.5,0.6-0.7,1.1-0.7S221.2,255.2,221.2,255.6z"/>
		</g>
	</g>
	<g>
		<g>
			<path class="st3" d="M206.3,267.9c0,0.5-0.3,0.7-0.8,0.7s-1-0.3-1-0.7c0-0.4,0.5-0.9,1-0.9S206.3,267.4,206.3,267.9z"/>
		</g>
	</g>
	<g>
		<g>
			<path class="st3" d="M180.9,261.5c0,0.4-0.2,1-0.6,1c-0.4,0-0.7-0.6-0.7-1c0-0.4,0.3-0.6,0.7-0.6
				C180.6,261,180.9,261,180.9,261.5z"/>
		</g>
	</g>
	<g>
		<g>
			<path class="st3" d="M206,255.6c0,0.3-0.1,0.7-0.4,0.7c-0.3,0-0.7-0.4-0.7-0.7c0-0.3,0.3-0.5,0.7-0.5
				C205.9,255.1,206,255.3,206,255.6z"/>
		</g>
	</g>
	<g>
		<g>
			<path class="st3" d="M214.7,253.5c0,0.2-0.3,0.2-0.6,0.2s-0.7,0-0.7-0.2s0.4-0.5,0.7-0.5S214.7,253.2,214.7,253.5z"/>
		</g>
	</g>
	<g>
		<g>
			<path class="st3" d="M171.3,251.1c0,0.2-0.1,0.6-0.3,0.6s-0.3-0.3-0.3-0.6c0-0.2,0.1-0.6,0.3-0.6
				C171.2,250.6,171.3,250.9,171.3,251.1z"/>
		</g>
	</g>
	<g>
		<g>
			<path class="st3" d="M217,265c0,0.2-0.3,0.3-0.7,0.3c-0.3,0-0.7-0.1-0.7-0.3c0-0.2,0.3-0.6,0.7-0.6
				C216.6,264.4,217,264.7,217,265z"/>
		</g>
	</g>
	<g>
		<g>
			<path class="st3" d="M160.3,252.1c0,0.2-0.2,0.2-0.4,0.2c-0.2,0-0.3-0.1-0.3-0.2c0-0.2,0.2-0.6,0.3-0.6S160.3,251.9,160.3,252.1z
				"/>
		</g>
	</g>
	<g>
		<g>
			<path class="st3" d="M187.9,256.7c0,0.2-0.3,0.4-0.5,0.4s-0.4-0.2-0.4-0.4s0.2-0.2,0.4-0.2C187.5,256.6,187.9,256.6,187.9,256.7z
				"/>
		</g>
	</g>
	<g>
		<g>
			<path class="st3" d="M190.2,264.4c0,0.2-0.3,0.4-0.5,0.4s-0.4-0.2-0.4-0.4s0.2-0.2,0.4-0.2S190.2,264.2,190.2,264.4z"/>
		</g>
	</g>
	<g>
		<g>
			<path class="st3" d="M185.8,268.3c0,0.2-0.1,0.4-0.2,0.4c-0.2,0-0.1-0.2-0.1-0.4s-0.1-0.5,0.1-0.5
				C185.8,267.8,185.8,268.1,185.8,268.3z"/>
		</g>
	</g>
	<g>
		<g>
			<path class="st3" d="M210.1,262.4c0,0.2-0.1,0.4-0.2,0.4c-0.2,0-0.1-0.2-0.1-0.4s-0.1-0.5,0.1-0.5S210.1,262.3,210.1,262.4z"/>
		</g>
	</g>
	<g>
		<g>
			<path class="st3" d="M161.4,257.9c0,0.2-0.3,0.2-0.4,0.2c-0.2,0-0.2-0.1-0.2-0.2c0-0.2,0-0.2,0.2-0.2
				C161.1,257.7,161.4,257.7,161.4,257.9z"/>
		</g>
	</g>
	<g>
		<g>
			<path class="st3" d="M163.1,262.2c0,0.1-0.2,0.1-0.2,0.1s-0.3-0.1-0.2-0.2c0-0.1,0.2-0.2,0.3-0.2
				C162.9,262,163.1,262.1,163.1,262.2z"/>
		</g>
	</g>
	<g>
		<g>
			<path class="st3" d="M177.3,253c0,0.1-0.1,0.3-0.1,0.3s-0.2-0.2-0.2-0.3s0.1-0.3,0.2-0.3S177.3,253,177.3,253z"/>
		</g>
	</g>
	<g>
		<g>
			<path class="st3" d="M227.7,253.5c0,0.2-0.2,0.2-0.4,0.2s-0.5,0-0.5-0.2s0.3-0.3,0.5-0.3C227.5,253.2,227.7,253.3,227.7,253.5z"
				/>
		</g>
	</g>
	<g>
		<g>
			<path class="st3" d="M216.2,264.5c0-0.1,0.1,0.1,0.2,0.1s0.2,0,0.2,0.1c0,0.1-0.2,0.2-0.3,0.1
				C216.2,264.8,216.2,264.6,216.2,264.5z"/>
		</g>
	</g>
	<g>
		<g>
			<path class="st3" d="M196.8,263.4c0.1-0.2,0.1-0.5,0.2-0.4c0.2,0.1,0.2,0.5,0.2,0.6s-0.4,0.2-0.5,0.2S196.7,263.6,196.8,263.4z"
				/>
		</g>
	</g>
	<g>
		<g>
			<path class="st3" d="M215.6,258.4c0-0.1,0.2-0.3,0.2-0.2c0.1,0,0.2,0.3,0.2,0.4s-0.3,0.1-0.4,0.1
				C215.5,258.7,215.6,258.5,215.6,258.4z"/>
		</g>
	</g>
	<g>
		<g>
			<path class="st3" d="M197.9,256.7c0-0.1,0.2-0.2,0.3-0.2s0.2,0.2,0.2,0.3s-0.2,0-0.2-0.1C198.1,256.7,197.9,256.7,197.9,256.7z"
				/>
		</g>
	</g>
	<g>
		<g>
			<path class="st3" d="M194.4,256.6C194.4,256.5,194.3,256.5,194.4,256.6C194.4,256.6,194.4,256.6,194.4,256.6
				c0,0.1-0.1,0.1-0.2,0.1C194.2,256.7,194.4,256.7,194.4,256.6z"/>
		</g>
	</g>
	<g>
		<g>
			<path class="st3" d="M185.6,260.5c0-0.1,0-0.2,0-0.2C185.7,260.2,185.8,260.5,185.6,260.5c0.1,0.1,0-0.1-0.1-0.2
				C185.5,260.3,185.6,260.6,185.6,260.5z"/>
		</g>
	</g>
	<g>
		<g>
			<path class="st3" d="M198.8,247.5c0,0.1,0.2,0.2,0.1,0.2s-0.2-0.2-0.2-0.2S198.8,247.6,198.8,247.5
				C199.1,247.6,198.8,247.4,198.8,247.5z"/>
		</g>
	</g>
	<g>
		<g>
			<path class="st3" d="M174.1,265.8c0,0.6-0.3,0.8-0.9,0.8c-0.6,0-1.1-0.2-1.1-0.8s0.5-0.9,1.1-0.9S174.1,265.2,174.1,265.8z"/>
		</g>
	</g>
	<g>
		<g>
			<path class="st3" d="M220.3,251.8c0.1-0.1,0.3,0,0.4,0.1s-0.1,0.2-0.2,0.2c-0.1,0.1,0,0-0.1-0.1
				C220.5,251.9,220.3,251.8,220.3,251.8z"/>
		</g>
	</g>
	<g>
		<g>
			<path class="st3" d="M185.2,250.6c0.1-0.1,0.1,0.2,0.1,0.2c0.1,0.1,0.2,0.1,0.2,0.1s-0.3,0.1-0.4,0.1
				C185,250.9,185.1,250.6,185.2,250.6z"/>
		</g>
	</g>
	<g>
		<g>
			<path class="st3" d="M207.9,250c0.1,0,0.2-0.1,0.2,0s0,0.2-0.1,0.2c-0.1,0-0.3,0.2-0.3,0.1C207.6,250.2,207.8,250,207.9,250z"/>
		</g>
	</g>
</g>
<g>
	<path class="st3" d="M234.2,249h-85.1c-0.2,0-0.4-0.2-0.4-0.4c0-0.2,0.2-0.4,0.4-0.4h85.1c0.2,0,0.4,0.2,0.4,0.4
		C234.6,248.8,234.4,249,234.2,249z"/>
</g>
<g>
	<g>
		<g>
			<g>
				<path class="st3" d="M338.4,265.2c0,0.4-0.6,0.7-1,0.7s-0.7-0.3-0.7-0.7c0-0.4,0.2-0.7,0.7-0.7S338.4,264.8,338.4,265.2z"/>
			</g>
		</g>
		<g>
			<g>
				<path class="st3" d="M308.9,257.9c0,0.4-0.4,0.5-0.8,0.5c-0.4,0-0.8-0.1-0.8-0.5c0-0.4,0.4-0.7,0.8-0.7
					C308.5,257.3,308.9,257.5,308.9,257.9z"/>
			</g>
		</g>
		<g>
			<g>
				<path class="st3" d="M331.2,251.7c0,0.2-0.1,0.3-0.3,0.3s-0.3,0-0.3-0.3c0-0.2,0.1-0.3,0.3-0.3S331.2,251.5,331.2,251.7z"/>
			</g>
		</g>
		<g>
			<g>
				<path class="st3" d="M295.7,251.6c0,0.6-0.2,0.7-0.7,0.7c-0.6,0-0.9-0.2-0.9-0.7c0-0.6,0.4-1.1,0.9-1.1
					C295.5,250.4,295.7,251.1,295.7,251.6z"/>
			</g>
		</g>
		<g>
			<g>
				<path class="st3" d="M360.1,255c0,0.5-0.2,0.9-0.7,0.9c-0.5,0-1.1-0.4-1.1-0.9c0-0.5,0.6-0.7,1.1-0.7
					C359.8,254.3,360.1,254.6,360.1,255z"/>
			</g>
		</g>
		<g>
			<g>
				<path class="st3" d="M345.2,267.3c0,0.5-0.3,0.7-0.8,0.7c-0.5,0-1-0.3-1-0.7s0.5-0.9,1-0.9C344.9,266.4,345.2,266.8,345.2,267.3
					z"/>
			</g>
		</g>
		<g>
			<g>
				<path class="st3" d="M319.7,260.8c0,0.4-0.2,1-0.6,1c-0.4,0-0.7-0.6-0.7-1c0-0.4,0.3-0.6,0.7-0.6
					C319.5,260.4,319.7,260.4,319.7,260.8z"/>
			</g>
		</g>
		<g>
			<g>
				<path class="st3" d="M344.9,255c0,0.3-0.1,0.7-0.4,0.7c-0.3,0-0.7-0.4-0.7-0.7c0-0.3,0.3-0.5,0.7-0.5
					C344.8,254.5,344.9,254.7,344.9,255z"/>
			</g>
		</g>
		<g>
			<g>
				<path class="st3" d="M353.6,252.9c0,0.2-0.3,0.2-0.6,0.2c-0.2,0-0.7,0-0.7-0.2c0-0.2,0.4-0.5,0.7-0.5
					C353.3,252.4,353.6,252.6,353.6,252.9z"/>
			</g>
		</g>
		<g>
			<g>
				<path class="st3" d="M310.1,250.5c0,0.2-0.1,0.6-0.3,0.6s-0.3-0.3-0.3-0.6s0.1-0.6,0.3-0.6C310.1,250,310.1,250.3,310.1,250.5z"
					/>
			</g>
		</g>
		<g>
			<g>
				<path class="st3" d="M355.8,264.3c0,0.2-0.3,0.3-0.7,0.3s-0.7-0.1-0.7-0.3c0-0.2,0.3-0.6,0.7-0.6S355.8,264.1,355.8,264.3z"/>
			</g>
		</g>
		<g>
			<g>
				<path class="st3" d="M299.2,251.5c0,0.2-0.2,0.2-0.4,0.2s-0.3-0.1-0.3-0.2c0-0.2,0.2-0.6,0.3-0.6S299.2,251.3,299.2,251.5z"/>
			</g>
		</g>
		<g>
			<g>
				<path class="st3" d="M326.7,256.1c0,0.2-0.3,0.4-0.5,0.4s-0.4-0.2-0.4-0.4s0.2-0.2,0.4-0.2S326.7,256,326.7,256.1z"/>
			</g>
		</g>
		<g>
			<g>
				<path class="st3" d="M329.1,263.8c0,0.2-0.3,0.4-0.5,0.4s-0.4-0.2-0.4-0.4s0.2-0.2,0.4-0.2S329.1,263.6,329.1,263.8z"/>
			</g>
		</g>
		<g>
			<g>
				<path class="st3" d="M324.7,267.7c0,0.2-0.1,0.4-0.2,0.4s-0.1-0.2-0.1-0.4s-0.1-0.5,0.1-0.5S324.7,267.5,324.7,267.7z"/>
			</g>
		</g>
		<g>
			<g>
				<path class="st3" d="M349,261.8c0,0.2-0.1,0.4-0.2,0.4s-0.1-0.2-0.1-0.4c0-0.2-0.1-0.5,0.1-0.5S349,261.7,349,261.8z"/>
			</g>
		</g>
		<g>
			<g>
				<path class="st3" d="M300.3,257.3c0,0.2-0.3,0.2-0.4,0.2c-0.2,0-0.2-0.1-0.2-0.2c0-0.2,0-0.2,0.2-0.2
					C300,257.1,300.3,257.1,300.3,257.3z"/>
			</g>
		</g>
		<g>
			<g>
				<path class="st3" d="M301.9,261.6c0,0.1-0.2,0.1-0.2,0.1c-0.1,0-0.3-0.1-0.2-0.2c0-0.1,0.2-0.2,0.3-0.2
					C301.8,261.4,301.9,261.5,301.9,261.6z"/>
			</g>
		</g>
		<g>
			<g>
				<path class="st3" d="M316.2,252.4c0,0.1-0.1,0.3-0.1,0.3s-0.2-0.2-0.2-0.3s0.1-0.3,0.2-0.3S316.2,252.4,316.2,252.4z"/>
			</g>
		</g>
		<g>
			<g>
				<path class="st3" d="M366.6,252.9c0,0.2-0.2,0.2-0.4,0.2s-0.5,0-0.5-0.2s0.3-0.3,0.5-0.3C366.3,252.6,366.6,252.7,366.6,252.9z"
					/>
			</g>
		</g>
		<g>
			<g>
				<path class="st3" d="M355.1,263.9c0-0.1,0.1,0.1,0.2,0.1s0.2,0,0.2,0.1c0,0.1-0.2,0.2-0.3,0.1
					C355.1,264.2,355.1,264,355.1,263.9z"/>
			</g>
		</g>
		<g>
			<g>
				<path class="st3" d="M335.7,262.8c0.1-0.2,0.1-0.5,0.2-0.4c0.2,0.1,0.2,0.5,0.2,0.6s-0.4,0.2-0.5,0.2
					C335.5,263,335.6,263,335.7,262.8z"/>
			</g>
		</g>
		<g>
			<g>
				<path class="st3" d="M354.5,257.8c0-0.1,0.2-0.3,0.2-0.2c0.1,0,0.2,0.3,0.2,0.4s-0.3,0.1-0.4,0.1
					C354.4,258.1,354.5,257.9,354.5,257.8z"/>
			</g>
		</g>
		<g>
			<g>
				<path class="st3" d="M336.8,256.1c0-0.1,0.2-0.2,0.3-0.2s0.2,0.2,0.2,0.3s-0.2,0-0.2-0.1S336.8,256.1,336.8,256.1z"/>
			</g>
		</g>
		<g>
			<g>
				<path class="st3" d="M333.2,256C333.2,255.9,333.2,255.9,333.2,256C333.2,256,333.3,256,333.2,256c0,0.1-0.1,0.1-0.2,0.1
					C333.1,256,333.2,256,333.2,256z"/>
			</g>
		</g>
		<g>
			<g>
				<path class="st3" d="M324.5,259.9c0-0.1,0-0.2,0-0.2C324.5,259.6,324.6,259.9,324.5,259.9c0.1,0.1,0-0.1-0.1-0.2
					C324.4,259.7,324.5,260,324.5,259.9z"/>
			</g>
		</g>
		<g>
			<g>
				<path class="st3" d="M337.7,246.9c0,0.1,0.2,0.2,0.1,0.2s-0.2-0.2-0.2-0.2C337.5,246.8,337.7,246.9,337.7,246.9
					C338,246.9,337.7,246.8,337.7,246.9z"/>
			</g>
		</g>
		<g>
			<g>
				<path class="st3" d="M313,265.2c0,0.6-0.3,0.8-0.9,0.8s-1.1-0.2-1.1-0.8c0-0.6,0.5-0.9,1.1-0.9C312.7,264.3,313,264.6,313,265.2
					z"/>
			</g>
		</g>
		<g>
			<g>
				<path class="st3" d="M359.2,251.2c0.1-0.1,0.3,0,0.4,0.1s-0.1,0.2-0.2,0.2c-0.1,0.1,0,0-0.1-0.1
					C359.3,251.3,359.2,251.2,359.2,251.2z"/>
			</g>
		</g>
		<g>
			<g>
				<path class="st3" d="M324,250c0.1-0.1,0.1,0.2,0.1,0.2c0.1,0.1,0.2,0.1,0.2,0.1s-0.3,0.1-0.4,0.1C323.9,250.3,324,250,324,250z"
					/>
			</g>
		</g>
		<g>
			<g>
				<path class="st3" d="M346.7,249.4c0.1,0,0.2-0.1,0.2,0s0,0.2-0.1,0.2c-0.1,0-0.3,0.2-0.3,0.1
					C346.5,249.6,346.7,249.4,346.7,249.4z"/>
			</g>
		</g>
	</g>
	<g>
		<path class="st3" d="M328.6,177.2c26.2,0,47.5,21.3,47.5,47.5s-21.3,47.5-47.5,47.5s-47.5-21.3-47.5-47.5S302.4,177.2,328.6,177.2
			 M328.6,174.7c-27.6,0-50,22.4-50,50c0,27.6,22.4,50,50,50c27.6,0,50-22.4,50-50C378.6,197.1,356.2,174.7,328.6,174.7L328.6,174.7
			z"/>
	</g>
	<path class="st16" d="M286.7,248c0.6-1.1,2.1-1.2,3.3-0.8c1.2,0.4,2.3,1.1,3.5,1c1.3-0.1,2.4-1,3.6-1.5c1.9-0.8,4.1-0.5,5.8,0.7
		c0.4,0.3,0.7,0.6,1.2,0.7c0.5,0.1,0.9-0.1,1.4-0.1c1.3-0.1,2.4,1,3.4,1.8s2.9,1.2,3.5,0c0.3-0.5,0.2-1.2,0.6-1.6
		c0.7-0.9,2.4-0.4,3.3-1.2c0.3-0.3,0.4-0.6,0.7-0.9c0.3-0.2,0.6-0.3,0.9-0.4c2.8-0.5,5.6,0.9,8.2,2.2c1.1,0.6,2.6,1.1,3.6,0.4
		c0.2-0.2,0.4-0.4,0.7-0.6c0.3-0.2,0.7-0.2,1.1-0.3c2.5-0.1,5.1,0.1,7.5,0.7c1.5,0.4,3.1,0.9,4.6,0.4c1.4-0.4,2.5-1.6,4-1.9
		c1.9-0.4,3.8,1.1,5.7,1.3c2.5,0.3,5-1.4,7.6-1.1c1.2,0.1,2.4,0.7,3.6,0.8c1.3,0,2.5-0.6,3.8-0.8c1.3-0.2,2.9,0,3.4,1.2"/>
	<g>
		<rect x="313.3" y="213.8" class="st33" width="5.4" height="1.7"/>
		<rect x="314.6" y="209.2" class="st34" width="2.7" height="15.4"/>
		<polygon class="st35" points="348.3,228.8 334.3,228.8 334.3,219.2 335.9,217.6 346.3,217.6 348.3,219.6 		"/>
		<polygon class="st27" points="348.1,239.3 311.5,239.3 307.5,223.2 352.1,223.2 		"/>
		<polygon class="st36" points="323.3,209.1 309.3,209.1 309.3,199.5 310.8,197.9 321.2,197.9 323.3,199.9 		"/>
		<circle class="st3" cx="319.3" cy="202.2" r="2.2"/>
		<rect x="313.1" y="223.9" class="st6" width="4.2" height="4.2"/>
		
			<rect x="315.5" y="228.6" transform="matrix(0.9684 0.2493 -0.2493 0.9684 67.6247 -74.7129)" class="st37" width="26.7" height="2.1"/>
		
			<rect x="315.9" y="224.1" transform="matrix(0.9951 -9.892007e-02 9.892007e-02 0.9951 -20.6632 33.5334)" class="st38" width="23.9" height="2.1"/>
		<rect x="342.2" y="229.1" class="st6" width="4.2" height="4.2"/>
		<rect x="342.2" y="234.3" class="st6" width="4.2" height="4.2"/>
		<circle class="st3" cx="341.3" cy="233.2" r="2.2"/>
		<line class="st24" x1="310" y1="206.5" x2="323" y2="206.5"/>
		<rect x="337.1" y="219.3" class="st1" width="1.7" height="1.7"/>
		<rect x="320.1" y="235.6" class="st1" width="9.6" height="1.7"/>
		<rect x="340.5" y="219.3" class="st3" width="1.7" height="1.7"/>
		<rect x="320.1" y="233.1" class="st3" width="1.7" height="1.7"/>
		<rect x="343.5" y="219.3" class="st3" width="1.7" height="1.7"/>
		<circle class="st25" cx="341.3" cy="233.2" r="1.4"/>
		<circle class="st3" cx="339.3" cy="224.2" r="2.2"/>
		<circle class="st25" cx="339.3" cy="224.2" r="1.4"/>
		<circle class="st3" cx="316.3" cy="226.2" r="2.2"/>
		<circle class="st25" cx="316.3" cy="226.2" r="1.4"/>
		<polygon class="st6" points="312.1,228.1 309.6,228.1 308.4,223.9 312.1,223.9 		"/>
		<polygon class="st6" points="312.1,233.3 310.8,233.3 309.8,229.1 312.1,229.1 		"/>
		<rect x="313.1" y="229.1" class="st6" width="4.2" height="4.2"/>
		<polygon class="st6" points="312.1,238.5 312.1,238.5 311.1,234.4 312.1,234.4 		"/>
		<rect x="313.1" y="234.3" class="st6" width="4.2" height="4.2"/>
		<polygon class="st6" points="347.4,228.2 350,228.2 351.1,224 347.4,224 		"/>
		<rect x="342.2" y="223.9" class="st6" width="4.2" height="4.2"/>
		<polygon class="st6" points="347.4,233.4 348.7,233.4 349.8,229.2 347.4,229.2 		"/>
		<polygon class="st6" points="347.4,238.5 347.5,238.5 348.5,234.4 347.4,234.4 		"/>
		<path class="st15" d="M308.1,246.5c0.5-0.5,1.8-1.8,2-3.5c0.2-1.7-1.2-5-6.5-5.7l6.2-5.7"/>
		<path class="st39" d="M305.8,251h-5.8c-1.1,0-2-0.9-2-2v-6.2c0-1.1,0.9-2,2-2h5.8c1.1,0,2,0.9,2,2v6.2
			C307.8,250.1,306.9,251,305.8,251z"/>
		<path class="st3" d="M303.8,239L303.8,239c-1,0-1.8-0.8-1.8-1.8l0,0c0-1,0.8-1.8,1.8-1.8l0,0c1,0,1.8,0.8,1.8,1.8l0,0
			C305.6,238.2,304.8,239,303.8,239z"/>
		<line class="st24" x1="298.5" y1="245.8" x2="303.1" y2="241.4"/>
		<line class="st24" x1="301.7" y1="251.2" x2="307.9" y2="244.7"/>
		<line class="st24" x1="299" y1="249.6" x2="307" y2="241.6"/>
		<path class="st15" d="M351.9,247.5c-0.5-0.5-1.8-1.8-2-3.5s1.2-5,6.5-5.7l-6.2-5.7"/>
		<path class="st39" d="M354.3,252h5.8c1.1,0,2-0.9,2-2v-6.2c0-1.1-0.9-2-2-2h-5.8c-1.1,0-2,0.9-2,2v6.2
			C352.3,251.1,353.2,252,354.3,252z"/>
		<path class="st3" d="M356.3,240L356.3,240c1,0,1.8-0.8,1.8-1.8l0,0c0-1-0.8-1.8-1.8-1.8l0,0c-1,0-1.8,0.8-1.8,1.8l0,0
			C354.4,239.2,355.3,240,356.3,240z"/>
		<line class="st24" x1="361.6" y1="246.8" x2="356.9" y2="242.4"/>
		<line class="st24" x1="358.3" y1="252.2" x2="352.1" y2="245.7"/>
		<line class="st24" x1="361" y1="250.6" x2="353" y2="242.6"/>
	</g>
	<rect x="310" y="206.5" class="st25" width="12.7" height="1.9"/>
</g>
<g>
	<g>
		<path class="st3" d="M494.1,20.4c0.9,0,1.6,0.7,1.6,1.6v56c0,0.9-0.7,1.6-1.6,1.6h-49.8c-0.9,0-1.6-0.7-1.6-1.6V22
			c0-0.9,0.7-1.6,1.6-1.6H494.1 M494.1,18.9h-49.8c-1.7,0-3.1,1.4-3.1,3.1v56c0,1.7,1.4,3.1,3.1,3.1h49.8c1.7,0,3.1-1.4,3.1-3.1V22
			C497.3,20.3,495.9,18.9,494.1,18.9L494.1,18.9z"/>
	</g>
	<g>
		<path class="st3" d="M494.1,20.4c0.9,0,1.6,0.7,1.6,1.6v38.9h-52.9V22c0-0.9,0.7-1.6,1.6-1.6H494.1 M494.1,18.9h-49.8
			c-1.7,0-3.1,1.4-3.1,3.1v40.5h56V22C497.3,20.3,495.9,18.9,494.1,18.9L494.1,18.9z"/>
	</g>
	<g>
		<defs>
			<rect id="SVGID_7_" x="454.8" y="25.2" width="32.6" height="30.9"/>
		</defs>
		<clipPath id="SVGID_8_">
			<use xlink:href="#SVGID_7_"  style="overflow:visible;"/>
		</clipPath>
		<polygon class="st40" points="457.7,56.4 457.7,51 472.8,40.7 470.8,35.2 487.9,28.2 487.3,56.2 		"/>
		<path class="st41" d="M487.6,38.4l-14.8,2.3l4.4,15.2C476.9,56,487.5,43,487.5,43L457.7,51"/>
		<use xlink:href="#SVGID_7_"  style="overflow:visible;fill:none;stroke:#27272B;stroke-width:0.6228;stroke-miterlimit:10;"/>
	</g>
	<rect x="490.7" y="24.4" class="st3" width="2.5" height="2.5"/>
	<rect x="490.7" y="29.4" class="st1" width="2.5" height="2.5"/>
	<rect x="490.7" y="36.8" class="st17" width="2.5" height="2.5"/>
	<rect x="490.7" y="40.6" class="st17" width="2.5" height="2.5"/>
	<rect x="490.7" y="44.3" class="st3" width="2.5" height="2.5"/>
	<rect x="490.7" y="51.8" class="st1" width="2.5" height="2.5"/>
	<rect x="445.3" y="40.6" class="st17" width="6.2" height="2.5"/>
	<rect x="445.3" y="44.3" class="st3" width="6.2" height="2.5"/>
	<rect x="445.3" y="48.1" class="st1" width="6.2" height="2.5"/>
	<rect x="445.3" y="51.8" class="st3" width="6.2" height="2.5"/>
	<rect x="445.3" y="24.4" class="st3" width="2.5" height="11.2"/>
	<rect x="449.1" y="24.4" class="st3" width="2.5" height="11.2"/>
	<g>
		<rect x="447.9" y="66.1" class="st3" width="5" height="1.2"/>
		<rect x="455.4" y="66.1" class="st3" width="5" height="1.2"/>
		<rect x="462.9" y="66.1" class="st3" width="5" height="1.2"/>
		<rect x="470.4" y="66.1" class="st3" width="5" height="1.2"/>
		<rect x="477.8" y="66.1" class="st3" width="5" height="1.2"/>
		<rect x="485.3" y="66.1" class="st3" width="5" height="1.2"/>
	</g>
	<g>
		<rect x="444.2" y="70.5" class="st3" width="5" height="1.2"/>
		<rect x="451.7" y="70.5" class="st3" width="5" height="1.2"/>
		<rect x="459.2" y="70.5" class="st3" width="5" height="1.2"/>
		<rect x="466.6" y="70.5" class="st3" width="5" height="1.2"/>
		<rect x="474.1" y="70.5" class="st3" width="5" height="1.2"/>
		<rect x="481.6" y="70.5" class="st3" width="5" height="1.2"/>
		<rect x="489" y="70.5" class="st3" width="5" height="1.2"/>
	</g>
	<g>
		<rect x="447.9" y="74.9" class="st3" width="5" height="1.2"/>
		<rect x="455.4" y="74.9" class="st1" width="5" height="1.2"/>
		<rect x="462.9" y="74.9" class="st1" width="5" height="1.2"/>
		<rect x="470.4" y="74.9" class="st1" width="5" height="1.2"/>
		<rect x="477.8" y="74.9" class="st1" width="5" height="1.2"/>
		<rect x="485.3" y="74.9" class="st3" width="5" height="1.2"/>
	</g>
</g>
<polygon class="st42" points="212.1,67.2 210.4,63.7 217.2,52.1 214.6,49.7 221.4,43.2 231.4,58.2 "/>
<path class="st43" d="M223.9,46.9l-6.7,5.2l7.8,8.8c-0.1,0.2,0.5-11.5,0.5-11.5l-15.2,14.3"/>
<polygon class="st44" points="231.7,58.8 211.1,67.3 199.7,48.7 220.8,42.5 "/>
<polygon class="st45" points="186.7,78.4 180.5,68.8 174.4,42.5 178.7,43.6 "/>
<polygon class="st45" points="186,77.4 188.4,81.6 180.1,42.5 179,45 "/>
<polygon class="st45" points="200.8,81 198.8,81 188.4,39.1 191.2,40.2 "/>
<polygon class="st45" points="200.9,80.6 202.8,80.2 193.1,40.2 191.6,41.3 "/>
<path class="st46" d="M160.6,35.5L199.9,25c1.9-0.5,4.2,2.1,5.3,5.8s0.4,7.2-1.5,7.7L165,48.7"/>
<ellipse transform="matrix(0.963 -0.2696 0.2696 0.963 -5.3514 45.3922)" class="st47" cx="162.6" cy="42.2" rx="3.5" ry="7"/>
<path class="st48" d="M173.9,31.9c1.9-0.5,4.2,2,5.3,5.7s0.4,7.2-1.5,7.7"/>
<path class="st48" d="M174.9,31.9c1.9-0.5,4.2,2,5.3,5.7s0.4,7.2-1.5,7.7"/>
<path class="st48" d="M187.9,28.2c1.9-0.5,4.4,2.1,5.5,5.9s0.4,7-1.5,7.5"/>
<path class="st48" d="M187.1,28.4c1.9-0.5,4.4,2.1,5.5,5.9s0.4,7-1.5,7.5"/>
<path class="st49" d="M161.8,40.9"/>
</svg>
