<?xml version="1.0" encoding="utf-8"?>
<!-- Generator: Adobe Illustrator 19.1.0, SVG Export Plug-In . SVG Version: 6.00 Build 0)  -->
<!DOCTYPE svg PUBLIC "-//W3C//DTD SVG 1.1//EN" "http://www.w3.org/Graphics/SVG/1.1/DTD/svg11.dtd">
<svg version="1.1" id="Layer_9" xmlns="http://www.w3.org/2000/svg" xmlns:xlink="http://www.w3.org/1999/xlink" x="0px" y="0px"
	 viewBox="0 0 100 100" style="enable-background:new 0 0 100 100;" xml:space="preserve">
<style type="text/css">
	.st0{fill:#27272B;}
	.st1{opacity:0.2;}
	.st2{fill:#FFFFFF;}
	.st3{fill:#1B66FF;}
	.st4{fill:none;stroke:#27272B;stroke-width:1.0854;stroke-linejoin:round;stroke-miterlimit:10;}
	.st5{fill:#FFFFFF;stroke:#27272B;stroke-width:1.0854;stroke-linejoin:round;stroke-miterlimit:10;}
	.st6{fill:#1B66FF;fill-opacity:0.3;}
	.st7{fill:none;stroke:#27272B;stroke-width:1.7674;stroke-miterlimit:10;}
</style>
<g>
	<path class="st0" d="M50,2.5c26.2,0,47.5,21.3,47.5,47.5S76.2,97.5,50,97.5S2.5,76.2,2.5,50S23.8,2.5,50,2.5 M50,0
		C22.4,0,0,22.4,0,50c0,27.6,22.4,50,50,50c27.6,0,50-22.4,50-50C100,22.4,77.6,0,50,0L50,0z"/>
</g>
<g>
	<g class="st1">
		<g>
			<path class="st2" d="M67.8,24.7H32.2c-1,0-1.9,0.2-2.8,0.4c-0.9,0.3-1.7,0.7-2.4,1.2c-0.7,0.5-1.4,1.1-1.8,1.8
				c-0.5,0.7-0.8,1.4-0.9,2.2l-6.1,35.8c-0.2,1.2-0.1,2.4,0.1,3.5c0.3,1.1,0.8,2.1,1.5,2.9c0.7,0.9,1.6,1.6,2.7,2
				c1.1,0.5,2.3,0.8,3.6,0.8H74c1.3,0,2.5-0.3,3.6-0.8c1.1-0.5,2-1.2,2.7-2c0.7-0.8,1.2-1.9,1.5-2.9c0.3-1.1,0.3-2.3,0.1-3.5
				l-6.1-35.8c-0.1-0.8-0.5-1.5-0.9-2.2c-0.5-0.7-1.1-1.3-1.8-1.8c-0.7-0.5-1.6-0.9-2.4-1.2C69.7,24.9,68.8,24.7,67.8,24.7"/>
		</g>
	</g>
	<g class="st1">
		<g>
			<g>
				<path class="st3" d="M67.8,24.7H64l-6.9,5.6h6.1c0.1,0,0.2,0,0.3,0c0.1,0,0.2,0,0.3,0c0.1,0,0.2,0,0.3,0c0.1,0,0.2,0,0.3,0.1
					l6.2-5.3C70.5,25.1,70.3,25,70,25c-0.2-0.1-0.5-0.1-0.7-0.1c-0.2,0-0.5-0.1-0.7-0.1C68.3,24.7,68.1,24.7,67.8,24.7"/>
				<path class="st3" d="M28.7,53.4l-9.9,8L18.1,66C18,66.4,18,66.7,18,67c0,0.3,0,0.6,0,0.9c0,0.3,0,0.6,0.1,0.9
					c0,0.3,0.1,0.6,0.2,0.9l9.7-8.2c0-0.1,0-0.2,0-0.4c0-0.1,0-0.2,0-0.4c0-0.1,0-0.2,0-0.4c0-0.1,0-0.3,0-0.4L28.7,53.4"/>
				<path class="st3" d="M74.8,28l-6.2,5.5c0,0.1,0.1,0.2,0.1,0.3c0,0.1,0.1,0.2,0.1,0.3c0,0.1,0,0.2,0.1,0.3c0,0.1,0,0.2,0,0.3
					l0.6,5.2l6.8-6.3l-0.5-3.2c0-0.2-0.1-0.4-0.1-0.6c-0.1-0.2-0.1-0.4-0.2-0.6c-0.1-0.2-0.2-0.4-0.3-0.6C75.1,28.3,75,28.2,74.8,28
					"/>
				<path class="st3" d="M32.1,65.8l-9.8,8.6c0.3,0.1,0.6,0.2,0.9,0.3c0.3,0.1,0.6,0.2,0.9,0.3c0.3,0.1,0.6,0.1,1,0.2
					c0.3,0,0.7,0.1,1,0.1h5.1l10-9.3h-7.5c-0.1,0-0.3,0-0.4,0c-0.1,0-0.3,0-0.4,0c-0.1,0-0.3,0-0.4-0.1
					C32.4,65.9,32.2,65.8,32.1,65.8"/>
				<polyline class="st3" points="42.2,24.7 34.9,24.7 23.8,32.5 22.7,38.9 42.2,24.7 				"/>
				<polyline class="st3" points="79.9,54.4 60.5,75.3 70.3,75.3 81.4,62.7 79.9,54.4 				"/>
				<polyline class="st3" points="77.5,39.8 70.4,46.7 71.4,54.2 78.7,46.8 77.5,39.8 				"/>
				<polyline class="st3" points="59.8,66 50.5,66 41,75.3 50.7,75.3 59.8,66 				"/>
				<polyline class="st3" points="56.7,24.7 49.5,24.7 42,30.3 49.6,30.3 56.7,24.7 				"/>
				<polyline class="st3" points="30.5,39 21.5,45.7 20.3,53.2 29.7,45.9 30.5,39 				"/>
			</g>
		</g>
	</g>
	<polygon class="st4" points="39.1,58.9 31.1,45 31.1,43.6 70.2,43.6 70.2,45 62.3,58.9 	"/>
	<polygon class="st5" points="39.1,57.5 31.1,43.6 42.2,33.4 59.1,33.4 70.2,43.6 62.3,57.5 	"/>
	<path class="st6" d="M36.4,43.6c1-5.1,7.3-8.8,14.3-8.8S64,38.5,65,43.6C66.1,49.5,59.8,55,50.7,55S35.3,49.5,36.4,43.6z"/>
	<path class="st3" d="M35,37.5c1.1-5.6,8-9.6,15.7-9.6s14.6,4,15.7,9.6C67.6,44,60.7,50,50.7,50S33.7,44,35,37.5z"/>
	<g>
		<g>
			<path class="st7" d="M67.8,24.7H32.2c-1,0-1.9,0.2-2.8,0.4c-0.9,0.3-1.7,0.7-2.4,1.2c-0.7,0.5-1.4,1.1-1.8,1.8
				c-0.5,0.7-0.8,1.4-0.9,2.2l-6.1,35.8c-0.2,1.2-0.1,2.4,0.1,3.5c0.3,1.1,0.8,2.1,1.5,2.9c0.7,0.9,1.6,1.6,2.7,2
				c1.1,0.5,2.3,0.8,3.6,0.8H74c1.3,0,2.5-0.3,3.6-0.8c1.1-0.5,2-1.2,2.7-2c0.7-0.8,1.2-1.9,1.5-2.9c0.3-1.1,0.3-2.3,0.1-3.5
				l-6.1-35.8c-0.1-0.8-0.5-1.5-0.9-2.2c-0.5-0.7-1.1-1.3-1.8-1.8c-0.7-0.5-1.6-0.9-2.4-1.2C69.7,24.9,68.8,24.7,67.8,24.7"/>
		</g>
	</g>
	<ellipse class="st0" cx="25.4" cy="68.2" rx="2.2" ry="1.6"/>
	<ellipse class="st0" cx="75.5" cy="68.2" rx="2.2" ry="1.6"/>
	<ellipse class="st0" cx="30.3" cy="29" rx="2.2" ry="1.6"/>
	<ellipse class="st0" cx="69.1" cy="29" rx="2.2" ry="1.6"/>
	<g>
		<path class="st2" d="M38.7,40.2l1.2-3.9h0.8l-0.9,3.1h1.6l-0.2,0.8H38.7z"/>
		<path class="st2" d="M44.8,40.2l-0.1-0.7H43l-0.4,0.7h-1l2.3-3.9h0.9l0.8,3.9H44.8z M44.3,37.1l-0.9,1.7h1.2L44.3,37.1z"/>
		<path class="st2" d="M46.4,38.6l0.3-2.3h0.8l-0.2,2.2c-0.1,0.6,0.2,1,0.8,1s0.9-0.4,0.9-1l0.1-2.2h0.8l-0.1,2.3
			c0,1-0.6,1.7-1.8,1.7S46.3,39.6,46.4,38.6z"/>
		<path class="st2" d="M53.5,40.2l-1.9-2.6l0,2.6h-0.8l0-3.9h0.8l1.8,2.4l-0.1-2.4H54l0.3,3.9H53.5z"/>
		<path class="st2" d="M54.9,38.2c-0.1-1.2,0.6-1.9,1.7-1.9c0.8,0,1.3,0.4,1.6,0.9l-0.6,0.3c-0.2-0.3-0.6-0.5-0.9-0.5
			c-0.7,0-1.1,0.5-1,1.2c0.1,0.8,0.7,1.3,1.4,1.3c0.4,0,0.7-0.3,0.8-0.6l0.8,0.4c-0.2,0.5-0.6,1-1.4,1
			C56.1,40.3,55.1,39.4,54.9,38.2z"/>
		<path class="st2" d="M62.3,40.2l-0.5-1.7h-1.8l0.4,1.7h-0.8l-0.9-3.9h0.8l0.3,1.4h1.7l-0.4-1.4H62l1.2,3.9H62.3z"/>
	</g>
</g>
</svg>
