<?xml version="1.0" encoding="utf-8"?>
<!-- Generator: Adobe Illustrator 19.1.0, SVG Export Plug-In . SVG Version: 6.00 Build 0)  -->
<!DOCTYPE svg PUBLIC "-//W3C//DTD SVG 1.1//EN" "http://www.w3.org/Graphics/SVG/1.1/DTD/svg11.dtd">
<svg version="1.1" id="Layer_9" xmlns="http://www.w3.org/2000/svg" xmlns:xlink="http://www.w3.org/1999/xlink" x="0px" y="0px"
	 viewBox="0 0 100 100" style="enable-background:new 0 0 100 100;" xml:space="preserve">
<style type="text/css">
	.st0{fill:#27272B;}
	.st1{fill:#F2F2F2;stroke:#27272B;stroke-width:0.5854;stroke-miterlimit:10;}
	.st2{fill:#FFFFFF;stroke:#000000;stroke-miterlimit:10;}
	.st3{clip-path:url(#SVGID_2_);}
	.st4{fill:none;stroke:#1B66FF;stroke-width:4.6836;stroke-miterlimit:10;}
	.st5{fill:none;stroke:#F2F2F2;stroke-width:3.5127;stroke-miterlimit:10;}
	.st6{fill:none;stroke:#27272B;stroke-width:0.5854;stroke-miterlimit:10;}
	.st7{fill:#1B66FF;}
	.st8{fill:#27272B;fill-opacity:0.5;}
	.st9{fill:#1B66FF;fill-opacity:0.3;}
	.st10{fill:none;stroke:#27272B;stroke-width:1.4636;stroke-miterlimit:10;}
	.st11{fill:none;stroke:#27272B;stroke-width:4.3908;stroke-miterlimit:10;}
	.st12{fill:none;stroke:#F2F2F2;stroke-width:1.7563;stroke-miterlimit:10;}
	.st13{fill:#F2F2F2;stroke:#27272B;stroke-miterlimit:10;}
	.st14{clip-path:url(#SVGID_4_);fill:#1B66FF;fill-opacity:0.3;}
	.st15{fill:none;stroke:#27272B;stroke-miterlimit:10;}
</style>
<g>
	<path class="st0" d="M50,2.5c26.2,0,47.5,21.3,47.5,47.5S76.2,97.5,50,97.5S2.5,76.2,2.5,50S23.8,2.5,50,2.5 M50,0
		C22.4,0,0,22.4,0,50c0,27.6,22.4,50,50,50s50-22.4,50-50C100,22.4,77.6,0,50,0L50,0z"/>
</g>
<g>
	<path class="st1" d="M74,42.8l1.9,0c0.8,0,1.4,0.6,1.4,1.4l0,2.4c0,0.8-0.6,1.4-1.4,1.4L74,48L74,42.8z"/>
	<path class="st1" d="M48.9,48H47c-0.8,0-1.4-0.6-1.4-1.4v-2.4c0-0.8,0.6-1.4,1.4-1.4h1.9V48z"/>
</g>
<path class="st2" d="M74.8,58.6l-0.2,3.2H49.9l-0.4-3c2.5,1.1,7.1,1.8,12.5,1.8C67.6,60.7,72.4,59.8,74.8,58.6z"/>
<g>
	<defs>
		<path id="SVGID_1_" d="M90.3,94.3V80.2c0-13.6-11-23.3-24.7-23.3h-7.1c-13.6,0-24.7,9.6-24.7,23.3v14.1"/>
	</defs>
	<clipPath id="SVGID_2_">
		<use xlink:href="#SVGID_1_"  style="overflow:visible;"/>
	</clipPath>
	<g class="st3">
		<g>
			<path class="st4" d="M42.9,56.8c2.5,0,11,4.3,11,13.5"/>
			<path class="st5" d="M42.9,56.8c2.5,0,11,4.3,11,13.5"/>
		</g>
		<g>
			<path class="st4" d="M81.4,56.8c-2.5,0-11,4.3-11,13.5"/>
			<path class="st5" d="M81.4,56.8c-2.5,0-11,4.3-11,13.5"/>
		</g>
	</g>
</g>
<g>
	<polygon class="st6" points="69.5,94.3 49.4,94.3 49.4,70.2 74.9,70.2 74.9,91.1 	"/>
	<rect x="52.3" y="73.4" class="st6" width="19.7" height="17.6"/>
	<line class="st6" x1="60.7" y1="91.1" x2="60.7" y2="73.4"/>
	<line class="st6" x1="72" y1="84" x2="60.7" y2="84"/>
	<rect x="62.5" y="75.9" class="st7" width="1.4" height="1.4"/>
	<rect x="66.7" y="75.9" class="st0" width="1.4" height="1.4"/>
	<rect x="68.8" y="75.9" class="st8" width="1.4" height="1.4"/>
	<rect x="62.5" y="78.1" class="st0" width="1.4" height="1.4"/>
	<rect x="64.6" y="78.1" class="st8" width="1.4" height="1.4"/>
	<rect x="62.5" y="80.2" class="st8" width="1.4" height="1.4"/>
	<rect x="66.7" y="80.2" class="st7" width="1.4" height="1.4"/>
	<rect x="68.8" y="80.2" class="st0" width="1.4" height="1.4"/>
	<rect x="62.5" y="85.8" class="st8" width="1.4" height="3.5"/>
	<rect x="66.7" y="85.8" class="st7" width="3.5" height="1.4"/>
	<rect x="66.7" y="87.9" class="st0" width="1.4" height="1.4"/>
	<rect x="68.8" y="87.9" class="st9" width="1.4" height="1.4"/>
	<rect x="54.7" y="75.9" class="st0" width="1.4" height="8.5"/>
	<rect x="56.9" y="75.9" class="st8" width="1.4" height="8.5"/>
	<rect x="54" y="87.9" class="st0" width="4.9" height="1.4"/>
	<rect x="54" y="85.8" class="st7" width="4.9" height="1.4"/>
</g>
<path class="st10" d="M90.2,77.6c-1.3-12.3-11.8-20.7-24.5-20.7h-7.1c-13.6,0-24.7,9.6-24.7,23.3V96"/>
<g>
	<path class="st11" d="M76.5,58.8c0,2-6.4,3.6-14.3,3.6s-14.3-1.6-14.3-3.6c0-3.3,6.4-3.6,14.3-3.6S76.5,55.6,76.5,58.8z"/>
	<path class="st12" d="M76.5,58.8c0,2-6.4,3.6-14.3,3.6s-14.3-1.6-14.3-3.6c0-3.3,6.4-3.6,14.3-3.6S76.5,55.6,76.5,58.8z"/>
</g>
<path class="st13" d="M75.1,39.5v0.2l-0.6,15.7l0,3.6c-2.4,1.2-7.1,2-12.7,2c-5.4,0-9.9-0.7-12.4-1.8l-0.8-3.9l-2.5-15.6v-0.2
	c0-8.5,5.9-15.4,14.5-15.4S75.1,31,75.1,39.5z"/>
<g>
	<defs>
		<path id="SVGID_3_" d="M48,48.9c0,2,5.4,3.6,13.3,3.6s14-1.6,14-3.6l0.7-8.2c0-2.1-5.7-3.8-14-3.8c-8.3,0-15.3,1.7-15.3,3.8
			L48,48.9z"/>
	</defs>
	<clipPath id="SVGID_4_">
		<use xlink:href="#SVGID_3_"  style="overflow:visible;"/>
	</clipPath>
	<polygon class="st14" points="70.9,54.4 63.8,54.4 56.2,34.6 63.2,34.6 	"/>
	<polygon class="st14" points="76.5,54.4 73,54.4 65.3,34.6 68.9,34.6 	"/>
	<use xlink:href="#SVGID_3_"  style="overflow:visible;fill:none;stroke:#27272B;stroke-width:0.5854;stroke-miterlimit:10;"/>
</g>
<path class="st6" d="M48,48.9c0,2,5.4,3.6,13.3,3.6s14-1.6,14-3.6l0.7-8.2c0-2.1-2.9-12.8-14.7-12.8S46.7,38.6,46.7,40.7L48,48.9z"
	/>
<g>
	<polygon class="st15" points="43.1,24.8 14.1,24.8 14.1,41.8 34.2,41.8 38.1,46.1 38.1,41.8 43.1,41.8 	"/>
	<rect x="18" y="28.1" class="st7" width="1.4" height="1.4"/>
	<rect x="22.3" y="28.1" class="st0" width="1.4" height="1.4"/>
	<rect x="24.4" y="28.1" class="st8" width="2.8" height="1.4"/>
	<rect x="20.1" y="30.9" class="st7" width="3.5" height="1.4"/>
	<rect x="18" y="33.7" class="st8" width="1.4" height="1.4"/>
	<rect x="22.3" y="33.7" class="st7" width="1.4" height="1.4"/>
	<rect x="24.4" y="33.7" class="st0" width="2.8" height="1.4"/>
	<rect x="18" y="36.5" class="st8" width="1.4" height="1.4"/>
	<rect x="22.3" y="36.5" class="st7" width="1.4" height="1.4"/>
	<rect x="20.2" y="33.7" class="st8" width="1.4" height="1.4"/>
	<rect x="27.9" y="28.1" class="st7" width="1.4" height="1.4"/>
	<rect x="32.1" y="28.1" class="st0" width="4.9" height="1.4"/>
	<rect x="27.9" y="30.9" class="st0" width="1.4" height="1.4"/>
	<rect x="30" y="30.9" class="st8" width="5.6" height="1.4"/>
	<rect x="34.3" y="33.7" class="st7" width="2.8" height="1.4"/>
	<rect x="27.9" y="36.5" class="st8" width="1.4" height="1.4"/>
	<rect x="32.1" y="36.5" class="st7" width="1.4" height="1.4"/>
	<rect x="34.3" y="36.5" class="st0" width="2.8" height="1.4"/>
	<rect x="37.8" y="28.1" class="st7" width="1.4" height="1.4"/>
	<rect x="37.8" y="33.7" class="st8" width="1.4" height="1.4"/>
</g>
</svg>
